<svg width="470" height="360" viewBox="0 0 470 360" fill="none" xmlns="http://www.w3.org/2000/svg">
<path d="M408.212 228.966C400.927 234.559 365.536 225.582 354.679 224.736C329.535 222.809 319.383 227.368 298.656 239.776C267.589 258.388 239.061 283.579 208.887 303.742C186.61 318.594 179.325 321.837 152.817 327.524C122.784 334.01 91.9997 337.159 62.1081 344.256C49.8882 347.17 14.7797 360.282 5.7088 358.919C-3.83208 357.462 0.632867 346.277 4.43982 341.013C32.8275 301.251 146.942 304.776 189.006 255.756C197.184 246.215 210.861 220.929 188.677 219.519C169.643 218.297 141.396 251.338 121.75 260.221C110.094 265.485 76.2079 275.307 83.6338 250.962C89.8847 230.517 137.025 202.928 154.274 187.513C190.181 155.506 210.579 118.235 262.185 107.097C307.022 97.4618 335.457 115.369 376.675 122.794C386.075 124.486 426.964 126.789 431.288 130.314C436.27 134.403 428.609 151.182 427.152 157.48C424.285 170.029 415.967 222.903 408.165 228.919" fill="#F57E30"/>
<path d="M340.955 239.964C375.782 234.512 414.838 245.933 443.461 265.861C455.681 274.367 475.232 289.36 468.7 306.562C467.196 310.557 452.109 330.344 448.443 334.856C433.309 353.42 422.311 365.217 398.999 349.473C379.025 335.984 368.403 320.427 344.198 309.993C319.946 299.512 302.604 302.003 279.95 296.175C257.437 290.394 272.336 272.816 283.475 263.84C298.562 251.714 321.779 242.925 340.908 239.917" fill="#F57E30"/>
<path d="M252.644 0.220027C312.615 -4.94991 325.775 82.563 269.235 96.9448C201.086 114.288 182.803 6.28295 252.644 0.220027Z" fill="#F57E30"/>
</svg>
