<svg width="444" height="81" viewBox="0 0 444 81" fill="none" xmlns="http://www.w3.org/2000/svg">
<path d="M92.0733 51.6557C90.4356 52.9212 82.4537 50.8947 79.9971 50.7044C74.3229 50.2743 72.04 51.2917 67.3583 54.0957C60.3524 58.2976 53.9173 63.9801 47.1099 68.5211C42.0891 71.871 40.4431 72.5989 34.4629 73.8892C27.6886 75.3533 20.7489 76.0564 14.0077 77.6693C11.245 78.3227 3.33753 81.2839 1.28622 80.9778C-0.864354 80.647 0.144759 78.1325 0.996715 76.9331C7.3988 67.9586 33.1395 68.761 42.6268 57.7021C44.4713 55.5515 47.5565 49.8442 42.5523 49.5216C38.2595 49.2487 31.8822 56.7012 27.457 58.7029C24.835 59.8857 17.1839 62.1107 18.863 56.6185C20.2774 52.0113 30.9062 45.7829 34.802 42.3089C42.8997 35.088 47.4986 26.676 59.1448 24.1697C69.2608 21.9943 75.6794 26.0391 84.9765 27.7099C87.1022 28.0904 96.3248 28.6115 97.2926 29.4055C98.4175 30.3237 96.6805 34.112 96.3579 35.5347C95.7045 38.3718 93.8269 50.2991 92.0733 51.6557Z" fill="#F57E30"/>
<path d="M76.8951 54.1372C84.7529 52.913 93.562 55.4854 100.022 59.9768C102.776 61.8958 107.193 65.2705 105.721 69.1581C105.382 70.0514 101.982 74.5262 101.155 75.5436C97.7473 79.729 95.2576 82.3924 89.997 78.8439C85.4891 75.8083 83.0904 72.2847 77.6395 69.9356C72.1721 67.5782 68.2515 68.1324 63.148 66.8255C58.0776 65.5269 61.4358 61.5566 63.942 59.5301C67.3416 56.7923 72.5857 54.8072 76.8951 54.1372Z" fill="#F57E30"/>
<path d="M56.9782 0.0503024C70.5019 -1.12424 73.4714 18.6279 60.7251 21.8703C45.3568 25.7744 41.2294 1.41509 56.9782 0.0503024Z" fill="#F57E30"/>
<path d="M150.916 48.9097C150.916 50.8865 150.544 52.6235 149.807 54.1124C149.071 55.6095 148.07 56.8502 146.813 57.8511C145.556 58.8519 144.084 59.6046 142.396 60.1009C140.709 60.5972 138.906 60.8536 136.987 60.8536C135.688 60.8536 134.48 60.7461 133.364 60.531C132.247 60.316 131.263 60.0595 130.411 59.7618C129.559 59.464 128.848 59.1497 128.277 58.8188C127.706 58.488 127.293 58.1985 127.044 57.9503C126.796 57.7022 126.614 57.3383 126.507 56.8585C126.399 56.387 126.35 55.7005 126.35 54.8072C126.35 54.2034 126.366 53.6988 126.408 53.2935C126.449 52.8882 126.507 52.5574 126.598 52.301C126.689 52.0528 126.805 51.8708 126.945 51.7633C127.094 51.6558 127.259 51.6062 127.458 51.6062C127.731 51.6062 128.111 51.7633 128.608 52.0859C129.104 52.4085 129.741 52.7559 130.51 53.1446C131.288 53.5334 132.214 53.8891 133.289 54.2034C134.365 54.5177 135.614 54.6831 137.028 54.6831C137.954 54.6831 138.79 54.5756 139.526 54.3523C140.262 54.1289 140.891 53.8146 141.404 53.4093C141.916 53.004 142.313 52.4995 142.578 51.8957C142.851 51.2918 142.983 50.6301 142.983 49.8857C142.983 49.0337 142.752 48.2976 142.289 47.6938C141.825 47.09 141.222 46.544 140.469 46.0643C139.725 45.5928 138.873 45.1462 137.921 44.7243C136.97 44.3108 135.994 43.8641 134.985 43.4009C133.976 42.9377 133 42.4083 132.049 41.8128C131.097 41.2255 130.254 40.5142 129.501 39.687C128.757 38.8599 128.153 37.8921 127.681 36.7672C127.218 35.6423 126.987 34.2941 126.987 32.7225C126.987 30.9193 127.317 29.3312 127.987 27.9664C128.657 26.6016 129.559 25.4685 130.692 24.5669C131.825 23.6653 133.165 22.9953 134.704 22.5486C136.242 22.102 137.88 21.8787 139.6 21.8787C140.494 21.8787 141.387 21.9448 142.272 22.0854C143.165 22.2178 144.001 22.408 144.77 22.6396C145.539 22.8712 146.234 23.1359 146.838 23.4254C147.442 23.7149 147.839 23.9631 148.029 24.1533C148.219 24.3435 148.352 24.509 148.418 24.6496C148.484 24.7819 148.542 24.9639 148.591 25.1872C148.641 25.4106 148.674 25.6918 148.691 26.0309C148.707 26.37 148.724 26.7919 148.724 27.2964C148.724 27.8589 148.707 28.3304 148.682 28.7191C148.649 29.1079 148.608 29.4305 148.534 29.6786C148.467 29.9268 148.368 30.117 148.244 30.2328C148.12 30.3486 147.946 30.4065 147.731 30.4065C147.516 30.4065 147.177 30.2742 146.714 30.0012C146.251 29.7282 145.68 29.4305 145.002 29.1162C144.323 28.8018 143.538 28.5041 142.644 28.2477C141.751 27.9912 140.775 27.8589 139.708 27.8589C138.873 27.8589 138.145 27.9582 137.524 28.1649C136.904 28.3717 136.383 28.653 135.969 29.0086C135.556 29.3643 135.241 29.8027 135.043 30.299C134.836 30.8035 134.737 31.3329 134.737 31.8954C134.737 32.7308 134.968 33.4504 135.423 34.0625C135.878 34.6746 136.49 35.2122 137.251 35.6919C138.021 36.1634 138.881 36.6101 139.857 37.0319C140.825 37.4455 141.817 37.8921 142.826 38.3553C143.835 38.8185 144.82 39.3479 145.796 39.9434C146.763 40.539 147.624 41.2421 148.385 42.0692C149.137 42.8963 149.749 43.8641 150.213 44.9807C150.676 46.0974 150.907 47.4125 150.907 48.9179L150.916 48.9097Z" fill="#F57E30"/>
<path d="M195.466 33.2021C195.466 33.4172 195.433 33.6736 195.375 33.9879C195.318 34.3022 195.21 34.7406 195.053 35.3279L188.13 58.7939C188.03 59.1248 187.906 59.3894 187.749 59.5962C187.592 59.803 187.36 59.9602 187.038 60.076C186.715 60.1918 186.26 60.2662 185.673 60.3076C185.086 60.3489 184.308 60.3655 183.365 60.3655C182.422 60.3655 181.637 60.3407 181.041 60.291C180.437 60.2414 179.974 60.1587 179.627 60.0429C179.279 59.9271 179.039 59.7699 178.882 59.5631C178.725 59.3564 178.609 59.0999 178.535 58.7939L174.176 43.0368L174.118 42.7722L174.06 43.0368L170.048 58.7939C169.974 59.1248 169.858 59.3894 169.717 59.5962C169.577 59.803 169.329 59.9602 168.973 60.076C168.617 60.1918 168.146 60.2662 167.55 60.3076C166.947 60.3489 166.177 60.3655 165.226 60.3655C164.275 60.3655 163.473 60.3407 162.885 60.291C162.298 60.2414 161.827 60.1587 161.487 60.0429C161.148 59.9271 160.9 59.7699 160.743 59.5631C160.586 59.3564 160.47 59.0999 160.396 58.7939L153.53 35.3279C153.357 34.7654 153.241 34.327 153.199 34.0044C153.158 33.6819 153.125 33.4172 153.125 33.2021C153.125 33.0119 153.175 32.8382 153.282 32.6893C153.39 32.5404 153.58 32.4246 153.861 32.3419C154.142 32.2592 154.523 32.193 154.994 32.1516C155.466 32.1103 156.061 32.0938 156.781 32.0938C157.558 32.0938 158.187 32.1103 158.675 32.1516C159.163 32.193 159.535 32.2592 159.808 32.3584C160.081 32.4577 160.272 32.59 160.379 32.7472C160.487 32.9126 160.569 33.1111 160.627 33.3427L165.772 52.3918L165.83 52.7392L165.888 52.3918L170.718 33.3427C170.776 33.1111 170.867 32.9126 170.991 32.7472C171.115 32.5818 171.306 32.4494 171.562 32.3584C171.81 32.2592 172.166 32.193 172.621 32.1516C173.076 32.1103 173.663 32.0938 174.383 32.0938C175.102 32.0938 175.681 32.1186 176.128 32.1682C176.574 32.2178 176.93 32.284 177.187 32.375C177.443 32.466 177.633 32.5818 177.741 32.7224C177.848 32.863 177.931 33.0367 177.989 33.2352L183.167 52.4249L183.258 52.7475L183.316 52.4001L188.262 33.351C188.303 33.1194 188.378 32.9209 188.494 32.7555C188.609 32.59 188.808 32.4577 189.073 32.3667C189.346 32.2674 189.709 32.2013 190.181 32.1599C190.644 32.1186 191.24 32.102 191.951 32.102C192.662 32.102 193.258 32.1186 193.713 32.1599C194.168 32.2013 194.523 32.2592 194.788 32.3502C195.053 32.4411 195.227 32.5569 195.326 32.6976C195.425 32.8382 195.475 33.0119 195.475 33.2104L195.466 33.2021Z" fill="#F57E30"/>
<path d="M223.638 45.4769C223.638 46.3703 223.439 47.032 223.042 47.4538C222.645 47.8839 222.099 48.0907 221.396 48.0907H205.606C205.606 49.1991 205.738 50.1999 205.995 51.1015C206.251 52.0031 206.673 52.7723 207.244 53.401C207.814 54.0296 208.55 54.5093 209.452 54.8402C210.354 55.1711 211.437 55.3365 212.694 55.3365C213.952 55.3365 215.101 55.2455 216.069 55.0635C217.037 54.8815 217.881 54.6748 218.584 54.4514C219.295 54.2281 219.874 54.0213 220.345 53.8394C220.809 53.6574 221.189 53.5664 221.479 53.5664C221.652 53.5664 221.801 53.5995 221.917 53.6657C222.033 53.7318 222.132 53.8559 222.207 54.0296C222.281 54.2033 222.339 54.4514 222.364 54.774C222.389 55.0966 222.405 55.4936 222.405 55.9816C222.405 56.4118 222.397 56.7757 222.372 57.0735C222.355 57.3712 222.322 57.6277 222.281 57.8427C222.24 58.0578 222.182 58.2315 222.107 58.3804C222.033 58.5292 221.925 58.6699 221.801 58.8022C221.677 58.9345 221.33 59.1248 220.767 59.3564C220.205 59.588 219.485 59.8196 218.617 60.0429C217.748 60.2662 216.747 60.4565 215.623 60.6219C214.498 60.7873 213.298 60.8701 212.016 60.8701C209.708 60.8701 207.69 60.5806 205.953 60.0016C204.216 59.4226 202.769 58.5375 201.602 57.3547C200.436 56.1719 199.568 54.683 198.997 52.8799C198.426 51.0767 198.137 48.9675 198.137 46.544C198.137 44.1204 198.434 42.1601 199.038 40.3073C199.642 38.4545 200.511 36.8829 201.652 35.5926C202.794 34.3023 204.183 33.318 205.821 32.6397C207.459 31.9614 209.303 31.6223 211.363 31.6223C213.53 31.6223 215.391 31.9449 216.929 32.5818C218.468 33.2187 219.733 34.112 220.726 35.2452C221.719 36.3784 222.438 37.7184 222.91 39.2734C223.373 40.8284 223.604 42.5075 223.604 44.3355V45.5018L223.638 45.4769ZM216.549 43.3843C216.607 41.333 216.193 39.7118 215.316 38.5455C214.431 37.371 213.075 36.7837 211.23 36.7837C210.304 36.7837 209.493 36.9574 208.799 37.3048C208.104 37.6522 207.541 38.1236 207.086 38.7192C206.631 39.3147 206.284 40.0095 206.036 40.8119C205.796 41.6142 205.655 42.4744 205.614 43.3843H216.549Z" fill="#F57E30"/>
<path d="M251.762 59.2902C251.762 59.5632 251.662 59.7782 251.472 59.9271C251.282 60.0843 250.976 60.1918 250.554 60.258C250.14 60.3241 249.52 60.3572 248.709 60.3572C247.841 60.3572 247.204 60.3241 246.807 60.258C246.41 60.1918 246.129 60.076 245.963 59.9271C245.798 59.77 245.715 59.5632 245.715 59.2902V57.2224C244.648 58.3638 243.432 59.2571 242.068 59.894C240.703 60.5309 239.181 60.8535 237.518 60.8535C236.145 60.8535 234.88 60.6715 233.722 60.3159C232.564 59.9602 231.571 59.4226 230.727 58.7195C229.884 58.0081 229.23 57.1314 228.767 56.0892C228.304 55.047 228.072 53.8228 228.072 52.4249C228.072 50.9113 228.37 49.5961 228.957 48.4877C229.545 47.3711 230.43 46.453 231.604 45.7251C232.779 44.9972 234.234 44.4596 235.98 44.1122C237.725 43.7648 239.752 43.5911 242.059 43.5911H244.59V42.0195C244.59 41.2089 244.508 40.4893 244.342 39.8855C244.177 39.2816 243.904 38.7688 243.532 38.3553C243.159 37.9417 242.647 37.6439 242.018 37.4537C241.389 37.2634 240.603 37.1642 239.677 37.1642C238.453 37.1642 237.369 37.2965 236.402 37.5695C235.442 37.8424 234.59 38.1402 233.854 38.4711C233.118 38.8019 232.506 39.0997 232.009 39.3726C231.513 39.6456 231.116 39.7779 230.802 39.7779C230.587 39.7779 230.397 39.7118 230.231 39.5712C230.066 39.4388 229.933 39.2403 229.826 38.9922C229.718 38.744 229.636 38.4297 229.578 38.0657C229.52 37.7018 229.487 37.2882 229.487 36.8416C229.487 36.2378 229.536 35.7663 229.636 35.4189C229.735 35.0715 229.917 34.7572 230.19 34.476C230.463 34.1947 230.934 33.8887 231.612 33.5496C232.291 33.2104 233.085 32.8961 233.995 32.6066C234.904 32.3171 235.897 32.0772 236.972 31.8953C238.048 31.7133 239.156 31.6223 240.306 31.6223C242.34 31.6223 244.077 31.8208 245.525 32.2179C246.972 32.6149 248.155 33.227 249.09 34.0458C250.016 34.873 250.703 35.9317 251.125 37.2303C251.555 38.529 251.762 40.0674 251.762 41.8541V59.2985V59.2902ZM244.582 48.1817H241.786C240.603 48.1817 239.594 48.2727 238.759 48.4464C237.924 48.6201 237.245 48.8848 236.724 49.2322C236.203 49.5796 235.814 50.0014 235.574 50.4977C235.335 50.994 235.211 51.5564 235.211 52.2016C235.211 53.2852 235.558 54.1371 236.244 54.7575C236.931 55.3778 237.89 55.6839 239.106 55.6839C240.132 55.6839 241.075 55.4192 241.943 54.8981C242.812 54.377 243.68 53.6078 244.574 52.5986V48.1817H244.582Z" fill="#F57E30"/>
<path d="M273.863 56.6435C273.863 57.4955 273.814 58.1489 273.706 58.6038C273.598 59.0587 273.458 59.3813 273.284 59.5633C273.11 59.7453 272.854 59.9107 272.515 60.0596C272.176 60.2085 271.779 60.3325 271.324 60.4401C270.869 60.5476 270.373 60.6303 269.843 60.6882C269.314 60.7461 268.776 60.7792 268.23 60.7792C266.775 60.7792 265.517 60.5972 264.45 60.225C263.383 59.8528 262.498 59.2903 261.803 58.5211C261.109 57.7519 260.596 56.7924 260.265 55.6261C259.934 54.4598 259.769 53.0868 259.769 51.4987V38.2065H256.659C256.286 38.2065 256.005 37.9749 255.815 37.52C255.625 37.065 255.525 36.3041 255.525 35.2371C255.525 34.6746 255.55 34.2031 255.6 33.8144C255.649 33.4256 255.724 33.1196 255.815 32.8962C255.914 32.6729 256.03 32.5158 256.179 32.4165C256.328 32.3172 256.493 32.2676 256.692 32.2676H259.777V26.4776C259.777 26.2874 259.827 26.1137 259.934 25.9565C260.042 25.7994 260.232 25.667 260.513 25.5678C260.794 25.4602 261.175 25.3858 261.646 25.3362C262.118 25.2865 262.705 25.2617 263.408 25.2617C264.111 25.2617 264.723 25.2865 265.195 25.3362C265.666 25.3858 266.047 25.4602 266.311 25.5678C266.584 25.6753 266.775 25.8076 266.89 25.9565C267.006 26.1137 267.064 26.2874 267.064 26.4776V32.2676H272.705C272.895 32.2676 273.069 32.3172 273.218 32.4165C273.367 32.5158 273.483 32.6729 273.582 32.8962C273.681 33.1196 273.756 33.4256 273.797 33.8144C273.847 34.2031 273.871 34.6746 273.871 35.2371C273.871 36.3041 273.772 37.065 273.582 37.52C273.392 37.9749 273.11 38.2065 272.738 38.2065H267.064V50.3903C267.064 51.8047 267.287 52.8635 267.734 53.5748C268.181 54.2861 268.975 54.6335 270.116 54.6335C270.505 54.6335 270.852 54.6005 271.167 54.5343C271.481 54.4681 271.754 54.3854 271.994 54.3027C272.234 54.22 272.44 54.1373 272.606 54.0711C272.771 54.0049 272.92 53.9718 273.053 53.9718C273.168 53.9718 273.284 54.0049 273.383 54.0711C273.491 54.1373 273.574 54.2779 273.632 54.4764C273.689 54.6749 273.739 54.9561 273.789 55.3035C273.838 55.6509 273.863 56.0976 273.863 56.6435Z" fill="#F57E30"/>
<path d="M303.291 57.0817C303.291 57.6441 303.266 58.1239 303.217 58.5209C303.167 58.9179 303.093 59.2405 303.002 59.4969C302.902 59.7451 302.778 59.927 302.621 60.0346C302.464 60.1421 302.29 60.1917 302.1 60.1917H280.462C280.032 60.1917 279.668 60.1504 279.354 60.0759C279.039 60.0015 278.791 59.8443 278.601 59.6293C278.411 59.4059 278.27 59.0834 278.179 58.6532C278.088 58.2231 278.047 57.6772 278.047 56.999C278.047 56.3621 278.08 55.8079 278.138 55.3529C278.196 54.898 278.303 54.4927 278.46 54.1288C278.618 53.7731 278.816 53.4174 279.056 53.0783C279.296 52.7392 279.61 52.367 279.999 51.9617L286.517 44.9806C287.815 43.6241 288.866 42.3916 289.66 41.275C290.454 40.1583 291.074 39.141 291.521 38.2228C291.968 37.3047 292.274 36.4527 292.439 35.6752C292.605 34.8977 292.687 34.1616 292.687 33.4668C292.687 32.8299 292.588 32.2178 292.381 31.6471C292.174 31.0763 291.877 30.58 291.48 30.1499C291.083 29.7198 290.586 29.389 289.983 29.1491C289.379 28.9092 288.676 28.7851 287.857 28.7851C286.715 28.7851 285.698 28.934 284.821 29.2235C283.944 29.513 283.167 29.8356 282.497 30.1996C281.827 30.5552 281.273 30.8861 280.826 31.1921C280.379 31.4899 280.032 31.6388 279.776 31.6388C279.602 31.6388 279.453 31.5809 279.329 31.4651C279.205 31.3493 279.097 31.159 279.023 30.8861C278.948 30.6131 278.882 30.2492 278.833 29.7943C278.783 29.3393 278.758 28.7851 278.758 28.1234C278.758 27.6768 278.775 27.3046 278.8 27.0068C278.833 26.709 278.874 26.4443 278.932 26.221C278.99 25.9977 279.064 25.8074 279.164 25.642C279.263 25.4766 279.428 25.2781 279.676 25.0465C279.924 24.8149 280.363 24.5171 281.016 24.1614C281.67 23.8057 282.464 23.4501 283.415 23.1109C284.366 22.7718 285.408 22.4823 286.558 22.2507C287.708 22.0191 288.891 21.9033 290.131 21.9033C292.092 21.9033 293.804 22.1515 295.268 22.6477C296.732 23.144 297.948 23.8306 298.916 24.7156C299.883 25.6006 300.603 26.6428 301.083 27.8587C301.554 29.0664 301.794 30.3733 301.794 31.7711C301.794 32.9953 301.678 34.1946 301.447 35.3775C301.215 36.5603 300.727 37.8341 299.991 39.1989C299.255 40.5636 298.221 42.0773 296.881 43.7316C295.541 45.3859 293.771 47.3131 291.562 49.505L287.17 54.013H302.001C302.191 54.013 302.373 54.0709 302.539 54.1867C302.704 54.3025 302.845 54.4844 302.96 54.7243C303.076 54.9642 303.167 55.2868 303.225 55.6838C303.283 56.0808 303.316 56.5523 303.316 57.0982L303.291 57.0817Z" fill="#F57E30"/>
<path d="M332.076 48.9097C332.076 50.8865 331.704 52.6235 330.968 54.1124C330.231 55.6095 329.231 56.8502 327.973 57.8511C326.716 58.8519 325.244 59.6046 323.556 60.1009C321.869 60.5972 320.066 60.8536 318.147 60.8536C316.848 60.8536 315.641 60.7461 314.524 60.531C313.407 60.316 312.423 60.0595 311.571 59.7618C310.719 59.464 310.008 59.1497 309.437 58.8188C308.866 58.488 308.453 58.1985 308.205 57.9503C307.956 57.7022 307.774 57.3383 307.667 56.8585C307.559 56.387 307.51 55.7005 307.51 54.8072C307.51 54.2034 307.526 53.6988 307.568 53.2935C307.609 52.8882 307.667 52.5574 307.758 52.301C307.849 52.0528 307.965 51.8708 308.105 51.7633C308.254 51.6558 308.42 51.6062 308.618 51.6062C308.891 51.6062 309.272 51.7633 309.768 52.0859C310.264 52.4085 310.901 52.7559 311.67 53.1446C312.448 53.5334 313.374 53.8891 314.449 54.2034C315.525 54.5177 316.774 54.6831 318.188 54.6831C319.115 54.6831 319.95 54.5756 320.686 54.3523C321.422 54.1289 322.051 53.8146 322.564 53.4093C323.077 53.004 323.474 52.4995 323.738 51.8957C324.011 51.2918 324.144 50.6301 324.144 49.8857C324.144 49.0337 323.912 48.2976 323.449 47.6938C322.986 47.09 322.382 46.544 321.629 46.0643C320.885 45.5928 320.033 45.1462 319.081 44.7243C318.13 44.3108 317.154 43.8641 316.145 43.4009C315.136 42.9377 314.16 42.4083 313.209 41.8128C312.258 41.2255 311.414 40.5142 310.661 39.687C309.917 38.8599 309.313 37.8921 308.841 36.7672C308.378 35.6423 308.147 34.2941 308.147 32.7225C308.147 30.9193 308.478 29.3312 309.148 27.9664C309.818 26.6016 310.719 25.4685 311.852 24.5669C312.985 23.6653 314.325 22.9953 315.864 22.5486C317.402 22.102 319.04 21.8787 320.761 21.8787C321.654 21.8787 322.547 21.9448 323.432 22.0854C324.326 22.2178 325.161 22.408 325.93 22.6396C326.699 22.8712 327.394 23.1359 327.998 23.4254C328.602 23.7149 328.999 23.9631 329.189 24.1533C329.379 24.3435 329.512 24.509 329.578 24.6496C329.644 24.7819 329.702 24.9639 329.752 25.1872C329.801 25.4106 329.834 25.6918 329.851 26.0309C329.867 26.37 329.884 26.7919 329.884 27.2964C329.884 27.8589 329.867 28.3304 329.843 28.7191C329.81 29.1079 329.768 29.4305 329.694 29.6786C329.628 29.9268 329.528 30.117 329.404 30.2328C329.28 30.3486 329.106 30.4065 328.891 30.4065C328.676 30.4065 328.337 30.2742 327.874 30.0012C327.411 29.7282 326.84 29.4305 326.162 29.1162C325.484 28.8018 324.698 28.5041 323.804 28.2477C322.911 27.9912 321.935 27.8589 320.868 27.8589C320.033 27.8589 319.305 27.9582 318.684 28.1649C318.064 28.3717 317.543 28.653 317.129 29.0086C316.716 29.3643 316.402 29.8027 316.203 30.299C315.996 30.8035 315.897 31.3329 315.897 31.8954C315.897 32.7308 316.129 33.4504 316.584 34.0625C317.038 34.6746 317.651 35.2122 318.411 35.6919C319.181 36.1634 320.041 36.6101 321.017 37.0319C321.985 37.4455 322.977 37.8921 323.986 38.3553C324.996 38.8185 325.98 39.3479 326.956 39.9434C327.924 40.539 328.784 41.2421 329.545 42.0692C330.298 42.8963 330.91 43.8641 331.373 44.9807C331.836 46.0974 332.068 47.4125 332.068 48.9179L332.076 48.9097Z" fill="#F57E30"/>
<path d="M362.26 59.1992C362.26 59.3895 362.202 59.5632 362.086 59.712C361.97 59.8609 361.772 59.9767 361.507 60.076C361.234 60.1752 360.862 60.2497 360.39 60.291C359.919 60.3407 359.332 60.3655 358.629 60.3655C357.926 60.3655 357.313 60.3407 356.842 60.291C356.371 60.2414 355.99 60.167 355.725 60.076C355.452 59.9767 355.262 59.8609 355.146 59.712C355.031 59.5632 354.973 59.3977 354.973 59.1992V44.4016C354.973 43.1444 354.882 42.1518 354.7 41.4322C354.518 40.7126 354.253 40.1005 353.897 39.5877C353.55 39.0748 353.095 38.6778 352.549 38.3966C351.995 38.1154 351.35 37.9748 350.614 37.9748C349.687 37.9748 348.744 38.3139 347.793 38.9921C346.842 39.6704 345.858 40.663 344.824 41.9616V59.2075C344.824 59.3977 344.766 59.5714 344.65 59.7203C344.534 59.8692 344.336 59.985 344.054 60.0843C343.773 60.1835 343.401 60.258 342.938 60.2993C342.475 60.3489 341.879 60.3738 341.168 60.3738C340.456 60.3738 339.861 60.3489 339.398 60.2993C338.934 60.2497 338.562 60.1752 338.281 60.0843C338 59.985 337.801 59.8692 337.685 59.7203C337.57 59.5714 337.512 59.406 337.512 59.2075V20.9687C337.512 20.7785 337.57 20.6048 337.685 20.4476C337.801 20.2905 338 20.1581 338.281 20.0589C338.562 19.9513 338.934 19.8686 339.398 19.8107C339.861 19.7528 340.456 19.7197 341.168 19.7197C341.879 19.7197 342.475 19.7528 342.938 19.8107C343.401 19.8686 343.773 19.9513 344.054 20.0589C344.336 20.1664 344.534 20.2987 344.65 20.4476C344.766 20.6048 344.824 20.7785 344.824 20.9687V35.3031C346.081 34.0624 347.371 33.136 348.678 32.5239C349.985 31.9118 351.35 31.6058 352.764 31.6058C354.526 31.6058 356.015 31.8953 357.231 32.4743C358.447 33.0533 359.423 33.8473 360.167 34.8564C360.912 35.8655 361.449 37.0401 361.78 38.3883C362.111 39.7366 362.276 41.366 362.276 43.285V59.1909L362.26 59.1992Z" fill="#F57E30"/>
<path d="M391.549 59.2902C391.549 59.5632 391.449 59.7782 391.259 59.9271C391.069 60.0843 390.763 60.1918 390.341 60.258C389.928 60.3241 389.307 60.3572 388.497 60.3572C387.628 60.3572 386.991 60.3241 386.594 60.258C386.197 60.1918 385.916 60.076 385.75 59.9271C385.585 59.77 385.502 59.5632 385.502 59.2902V57.2224C384.435 58.3638 383.219 59.2571 381.855 59.894C380.49 60.5309 378.968 60.8535 377.305 60.8535C375.932 60.8535 374.667 60.6715 373.509 60.3159C372.351 59.9602 371.358 59.4226 370.514 58.7195C369.671 58.0081 369.017 57.1314 368.554 56.0892C368.091 55.047 367.859 53.8228 367.859 52.4249C367.859 50.9113 368.157 49.5961 368.744 48.4877C369.332 47.3711 370.217 46.453 371.391 45.7251C372.566 44.9972 374.022 44.4596 375.767 44.1122C377.512 43.7648 379.539 43.5911 381.846 43.5911H384.377V42.0195C384.377 41.2089 384.295 40.4893 384.129 39.8855C383.964 39.2816 383.691 38.7688 383.319 38.3553C382.946 37.9417 382.434 37.6439 381.805 37.4537C381.176 37.2634 380.391 37.1642 379.464 37.1642C378.24 37.1642 377.156 37.2965 376.189 37.5695C375.229 37.8424 374.377 38.1402 373.641 38.4711C372.905 38.8019 372.293 39.0997 371.797 39.3726C371.3 39.6456 370.903 39.7779 370.589 39.7779C370.374 39.7779 370.184 39.7118 370.018 39.5712C369.853 39.4388 369.72 39.2403 369.613 38.9922C369.505 38.744 369.423 38.4297 369.365 38.0657C369.307 37.7018 369.274 37.2882 369.274 36.8416C369.274 36.2378 369.323 35.7663 369.423 35.4189C369.522 35.0715 369.704 34.7572 369.977 34.476C370.25 34.1947 370.721 33.8887 371.4 33.5496C372.078 33.2104 372.872 32.8961 373.782 32.6066C374.692 32.3171 375.684 32.0772 376.759 31.8953C377.835 31.7133 378.943 31.6223 380.093 31.6223C382.128 31.6223 383.865 31.8208 385.312 32.2179C386.76 32.6149 387.942 33.227 388.877 34.0458C389.803 34.873 390.49 35.9317 390.912 37.2303C391.342 38.529 391.549 40.0674 391.549 41.8541V59.2985V59.2902ZM384.361 48.1817H381.565C380.382 48.1817 379.373 48.2727 378.538 48.4464C377.702 48.6201 377.024 48.8848 376.503 49.2322C375.982 49.5796 375.593 50.0014 375.353 50.4977C375.113 50.994 374.989 51.5564 374.989 52.2016C374.989 53.2852 375.337 54.1371 376.023 54.7575C376.71 55.3778 377.669 55.6839 378.885 55.6839C379.911 55.6839 380.854 55.4192 381.722 54.8981C382.591 54.377 383.459 53.6078 384.353 52.5986V48.1817H384.361Z" fill="#F57E30"/>
<path d="M415.51 35.6753C415.51 36.3701 415.493 36.9491 415.452 37.3875C415.41 37.8341 415.353 38.1815 415.278 38.438C415.204 38.6861 415.096 38.8681 414.972 38.9591C414.848 39.0583 414.683 39.108 414.492 39.108C414.335 39.108 414.161 39.0749 413.971 39.0087C413.781 38.9425 413.558 38.8681 413.318 38.7936C413.078 38.7192 412.805 38.6448 412.515 38.5786C412.226 38.5124 411.903 38.4793 411.556 38.4793C411.151 38.4793 410.745 38.562 410.332 38.7275C409.927 38.8929 409.505 39.1493 409.066 39.4967C408.628 39.8441 408.173 40.3073 407.702 40.8946C407.23 41.4818 406.717 42.1932 406.171 43.0451V59.2158C406.171 59.406 406.113 59.5797 405.998 59.7286C405.882 59.8775 405.683 59.9933 405.402 60.0925C405.121 60.1918 404.749 60.2662 404.285 60.3076C403.822 60.3572 403.227 60.382 402.515 60.382C401.804 60.382 401.208 60.3572 400.745 60.3076C400.282 60.258 399.91 60.1835 399.629 60.0925C399.347 59.9933 399.149 59.8775 399.033 59.7286C398.917 59.5797 398.859 59.4143 398.859 59.2158V33.2766C398.859 33.0864 398.909 32.9127 399.008 32.7638C399.108 32.6149 399.281 32.4991 399.529 32.3998C399.778 32.3006 400.108 32.2261 400.505 32.1848C400.902 32.1351 401.399 32.1103 402.003 32.1103C402.606 32.1103 403.136 32.1351 403.541 32.1848C403.946 32.2344 404.261 32.3088 404.484 32.3998C404.707 32.4991 404.864 32.6149 404.964 32.7638C405.063 32.9127 405.113 33.0781 405.113 33.2766V36.5025C405.791 35.5347 406.428 34.7324 407.032 34.1037C407.635 33.4751 408.206 32.9706 408.744 32.6066C409.29 32.2427 409.827 31.978 410.373 31.8374C410.919 31.6968 411.457 31.6223 412.003 31.6223C412.251 31.6223 412.524 31.6389 412.813 31.6637C413.103 31.6885 413.401 31.7381 413.715 31.8126C414.029 31.8787 414.294 31.9614 414.525 32.0442C414.757 32.1269 414.931 32.2261 415.038 32.3171C415.146 32.4164 415.22 32.5239 415.27 32.6397C415.32 32.7555 415.361 32.9127 415.402 33.1194C415.444 33.3262 415.468 33.6323 415.493 34.0376C415.518 34.4429 415.526 34.9971 415.526 35.6919L415.51 35.6753Z" fill="#F57E30"/>
<path d="M443.302 45.4769C443.302 46.3703 443.103 47.032 442.706 47.4538C442.309 47.8839 441.763 48.0907 441.06 48.0907H425.27C425.27 49.1991 425.402 50.1999 425.659 51.1015C425.915 52.0031 426.337 52.7723 426.908 53.401C427.478 54.0296 428.214 54.5093 429.116 54.8402C430.018 55.1711 431.101 55.3365 432.358 55.3365C433.616 55.3365 434.765 55.2455 435.733 55.0635C436.701 54.8815 437.545 54.6748 438.248 54.4514C438.959 54.2281 439.538 54.0213 440.01 53.8394C440.473 53.6574 440.853 53.5664 441.143 53.5664C441.316 53.5664 441.465 53.5995 441.581 53.6657C441.697 53.7318 441.796 53.8559 441.871 54.0296C441.945 54.2033 442.003 54.4514 442.028 54.774C442.053 55.0966 442.069 55.4936 442.069 55.9816C442.069 56.4118 442.061 56.7757 442.036 57.0735C442.019 57.3712 441.986 57.6277 441.945 57.8427C441.904 58.0578 441.846 58.2315 441.771 58.3804C441.697 58.5292 441.589 58.6699 441.465 58.8022C441.341 58.9345 440.994 59.1248 440.431 59.3564C439.869 59.588 439.149 59.8196 438.281 60.0429C437.412 60.2662 436.411 60.4565 435.287 60.6219C434.162 60.7873 432.962 60.8701 431.68 60.8701C429.373 60.8701 427.354 60.5806 425.617 60.0016C423.88 59.4226 422.433 58.5375 421.267 57.3547C420.1 56.1719 419.232 54.683 418.661 52.8799C418.09 51.0767 417.801 48.9675 417.801 46.544C417.801 44.1204 418.099 42.1601 418.702 40.3073C419.306 38.4545 420.175 36.8829 421.316 35.5926C422.458 34.3023 423.847 33.318 425.485 32.6397C427.123 31.9614 428.967 31.6223 431.027 31.6223C433.194 31.6223 435.055 31.9449 436.593 32.5818C438.132 33.2187 439.397 34.112 440.39 35.2452C441.383 36.3784 442.102 37.7184 442.574 39.2734C443.037 40.8284 443.268 42.5075 443.268 44.3355V45.5018L443.302 45.4769ZM436.213 43.3843C436.271 41.333 435.857 39.7118 434.981 38.5455C434.095 37.371 432.739 36.7837 430.894 36.7837C429.968 36.7837 429.157 36.9574 428.463 37.3048C427.768 37.6522 427.205 38.1236 426.75 38.7192C426.296 39.3147 425.948 40.0095 425.7 40.8119C425.46 41.6142 425.319 42.4744 425.278 43.3843H436.213Z" fill="#F57E30"/>
</svg>
